<?xml version="1.0" standalone="no"?>
<!DOCTYPE svg PUBLIC "-//W3C//DTD SVG 1.1//EN" "http://www.w3.org/Graphics/SVG/1.1/DTD/svg11.dtd" >
<svg xmlns="http://www.w3.org/2000/svg">
<metadata>Generated by IcoMoon</metadata>
<defs>
<font id="icomoon" horiz-adv-x="1024">
<font-face units-per-em="1024" ascent="960" descent="-64" />
<missing-glyph horiz-adv-x="1024" />
<glyph unicode="&#x20;" horiz-adv-x="512" d="" />
<glyph unicode="&#xe900;" glyph-name="star-full" d="M1024 562.95l-353.78 51.408-158.22 320.582-158.216-320.582-353.784-51.408 256-249.538-60.432-352.352 316.432 166.358 316.432-166.358-60.434 352.352 256.002 249.538z" />
<glyph unicode="&#xe901;" glyph-name="MyJobs5" horiz-adv-x="1026" d="M240.005 933.476c-17.522-4.823-30.061-13.825-35.687-25.56-2.894-5.787-3.376-9.806-3.376-27.167v-20.416h-82.467c-73.625 0-82.788-0.322-86.164-2.572-8.681-6.109-8.198 21.38-8.198-448.342s-0.482-442.233 8.198-448.342c3.537-2.411 42.439-2.572 482.1-2.572s478.563 0.161 482.1 2.572c8.681 6.109 8.198-21.38 8.198 448.342s0.482 442.233-8.198 448.342c-3.376 2.251-12.057 2.572-77.965 2.572h-74.268l-0.643 22.184c-0.482 21.219-0.643 22.666-4.983 28.936-5.466 8.359-14.629 15.111-26.685 19.933-12.86 5.144-38.902 5.144-51.763 0-12.057-4.823-21.219-11.574-26.685-19.933-4.34-6.269-4.501-7.716-4.983-28.936l-0.643-22.184h-410.886l-0.643 22.184c-0.482 21.219-0.643 22.666-4.983 28.936-9.324 14.146-27.167 22.827-49.351 23.792-9.002 0.482-16.558-0.161-22.023-1.768zM269.905 899.878c7.877-4.18 8.198-6.752 8.198-63.015 0-56.746-0.322-59.157-8.841-63.015-2.251-1.125-7.073-1.929-10.449-1.929s-8.198 0.804-10.449 1.929c-8.52 3.858-8.841 6.269-8.841 63.498 0.161 56.424 0.322 58.193 8.198 62.533 5.144 2.894 16.558 2.733 22.184 0zM797.177 899.878c7.877-4.18 8.198-6.752 8.198-63.015 0-56.746-0.322-59.157-8.841-63.015-2.251-1.125-7.073-1.929-10.449-1.929s-8.198 0.804-10.449 1.929c-8.52 3.858-8.841 6.269-8.841 63.498 0.161 56.424 0.322 58.193 8.198 62.533 5.144 2.894 16.558 2.733 22.184 0zM201.263 797.157c0.482-25.56 0.643-26.524 4.983-32.954 5.466-8.359 14.629-15.111 26.685-19.933 12.86-5.144 38.902-5.144 51.763 0 12.057 4.823 21.219 11.574 26.685 19.933 4.34 6.43 4.501 7.395 4.983 32.954l0.482 26.203h411.208l0.482-26.203c0.482-25.56 0.643-26.524 4.983-32.954 5.466-8.359 14.629-15.111 26.685-19.933 12.86-5.144 38.902-5.144 51.763 0 12.057 4.823 21.219 11.574 26.685 19.933 4.34 6.43 4.501 7.555 5.305 32.472l0.804 25.881 59.157 0.482 58.997 0.322v-159.146h-897.005v159.146h134.872l0.482-26.203zM962.914 311.359v-315.881h-897.005v631.761h897.005v-315.881zM392.239 504.103c-17.361-4.501-37.295-15.754-51.441-29.096-29.579-27.81-43.725-60.443-43.725-100.953 0.161-45.815 17.683-82.306 61.247-126.835 25.56-26.042 122.494-112.045 139.052-123.137 17.522-11.896 24.595-8.841 69.606 30.704 15.754 13.825 39.063 34.241 51.923 45.493 69.124 60.765 96.131 95.648 107.062 138.409 8.038 31.508 4.501 68.803-9.002 95.809-13.664 27.007-34.401 48.387-58.354 60.122-18.969 9.324-30.382 12.057-49.512 12.057-22.184 0-54.013-9.163-68.963-19.773-2.733-1.929-7.877-5.626-11.574-8.359-5.305-3.858-8.198-4.823-14.95-4.823s-9.645 0.965-14.95 4.823c-3.697 2.733-8.841 6.43-11.574 8.359-6.912 4.823-27.007 13.021-41.314 16.718-14.789 3.697-40.349 4.019-53.531 0.482zM448.502 460.7c13.182-3.858 25.399-10.77 36.652-20.416 19.612-16.879 37.295-16.879 56.907 0 20.255 17.522 37.938 23.631 66.391 23.631 16.236 0 20.737-0.643 28.936-3.858 27.489-10.61 43.082-29.9 49.030-60.765 2.572-12.539 1.286-42.439-2.411-55.621-10.61-39.545-26.846-59.157-106.097-128.442-14.146-12.378-27.81-24.274-30.543-26.685-26.524-23.149-36.17-24.756-56.264-9.163-9.967 7.555-65.427 56.424-86.003 75.554-48.708 45.493-63.176 71.053-65.427 116.225-2.251 45.493 15.111 76.358 50.155 88.575 5.305 1.929 11.414 3.697 13.664 4.18 7.877 1.447 36.33-0.482 45.011-3.215z" />
<glyph unicode="&#xe902;" glyph-name="Gardencare" d="M492.132 457.236c-113.363-87.411-162.424-69.451-180.766 63.809-5.431 39.474-21.685 41.241-51.13 40.548-51.682-1.245-98.776 12.348-109.427 69.783-11.525 62.173 31.744 91.407 82.994 109.498 21.454 7.58 50.256 3.624 32.356 42.807-25.901 56.661-31.021 116.585 35.589 145.348 72.112 31.132 105.352-31.563 142.577-78.979 25.018-4.417 33.009 20.48 49.373 30.399 41.502 25.178 83.707 38.029 122.9 0.673 38.952-37.115 34.324-84.711 4.759-121.856-32.688-41.080-25.931-61.259 16.304-86.93 35.208-21.373 50.427-58.81 40.328-101.225-9.738-40.759-41.402-58.047-79.34-60.155-36.603-2.068-40.699-14.597-36.603-50.186 22.116-192.060 20.651-190.805 216.727-195.574 31.393-0.743 91.337 27.919 88.988-35.88-1.857-51.2-20.43-102.31-97.571-99.73-157.867 5.291-316.115 4.628-474.022 0.040-62.273-1.807-83.095 29.495-98.706 79.099-12.157 38.691-1.416 57.173 39.243 57.394 59.633 0.351 119.758 5.532 178.778-0.291 83.697-8.252 107.61 27.959 92.13 103.805-5.341 26.132-9.326 52.565-15.48 87.602zM426.928 759.075c-49.032-3.534-79.219-29.325-79.902-77.392-0.643-47.696 27.507-78.758 76.539-78.587 43.831 0.161 71.329 26.333 74.069 71.499 3.012 49.463-23.964 75.886-70.706 84.48zM530.743 94.981c56.42 0 112.931 2.49 169.111-1.074 27.186-1.727 80.384 18.392 73.447-30.489-6.536-46.060-3.082-119.416-76.258-123.312-109.498-5.803-219.658-5-329.246-0.392-74.752 3.142-72.443 76.509-77.623 121.766-6.385 55.979 51.411 29.415 80.474 32.115 52.947 4.909 106.707 1.405 160.095 1.385zM631.718 321.827c42.968 44.564 91.688 54.965 114.296 105.080-55.537 10.963-91.196-29.847-141.001-48.158 4.969 94.047 70.485 120.621 138.481 138.993 52.666 14.216 127.518 41.281 156.080-4.357 26.423-42.225-36.462-91.799-70.485-130.821-48.188-55.266-106.004-89.329-197.371-60.737z" />
<glyph unicode="&#xe903;" glyph-name="Gardendesign" d="M334.376 472.044c-9.989 187.763-9.989 187.784 171.078 187.763 140.92 0 281.841 0.351 422.751-0.532 26.483-0.151 60.366 9.678 71.489-27.387 8.624-28.682-14.477-45.879-32.146-63.187-62.595-61.4-123.844-124.336-189.109-182.784-43.741-39.173-38.531-62.996 11.415-88.516 33.25-16.986 63.839-39.484 94.559-61.038 17.097-11.997 23.632-30.459 11.595-49.122-12.649-19.597-34.033-20.109-49.011-6.345-124.587 114.527-220.391 84.149-319.588-42.787-49.744-63.639-139.083-25.64-156.823 66.279-23.442 121.545-68.859 223.091-170.667 299.58-52.083 39.133-91.608 94.288-168.267 84.169-22.096-2.931-45.508 9.035-45.156 36.673 0.351 28.15 23.15 33.25 46.482 34.404 56.712 2.831 110.482 4.216 154.092-46.060 40.488-46.662 89.219-86.177 147.305-141.111zM611.037 345.911c-47.506 9.989-96.457 16.806-143.179 30.951-67.403 20.39-69.431-15.019-53.288-60.617 14.979-42.245-1.185-107.992 49.724-122.147 46.15-12.82 65.837 48.269 96.637 76.9 19.386 18.020 44.484 34.414 50.106 74.913zM714.883 222.549c52.334-29.204 89.118-53.027 128.643-70.736 30.73-13.744 62.193-9.387 81.789 23.502 20.028 33.621 6.234 61.38-20.641 82.051-33.702 25.951-70.104 48.399-117.338 80.515 84.691 38.912 147.697 31.312 199.891-24.506 52.766-56.42 61.099-122.85 20.058-190.093-38.822-63.649-99.238-86.227-170.094-70.184-79.521 17.99-119.457 71.058-122.308 169.452zM419.338 693.218c14.607 72.905 71.228 76.157 105.623 83.155 113.644 23.11 232.669 67.604 340.701-22.598 14.707-12.288 33.551-21.875 28.602-42.837-5.853-24.747-30.118-17.167-46.943-17.277-140.429-0.793-280.857-0.442-427.982-0.442z" />
<glyph unicode="&#xe904;" glyph-name="GutterCleaning" d="M445.199 644.989c89.761-65.466 150.267-156.24 194.821-256.693 17.679-39.886-7.178-81.358-41.542-107.791-76.479-58.79-155.979-113.624-232.157-172.755-32.326-25.068-50.477-14.918-70.797 13.432-51.049 71.288-103.876 141.302-155.136 212.45-19.406 26.935-38.621 64.873-19.858 89.72 52.415 69.391 28.27 140.82 24.717 214.528-2.952 61.32 33.933 105.623 98.184 115.521 59.492 9.156 105.010-15.29 123.282-73.648 29.666-94.71 55.497-190.635 81.769-286.369 6.275-22.859 9.085-50.266-20.179-59.071-30.238-9.126-40.599 16.504-47.255 39.143-24.757 84.038-48.259 168.458-72.312 252.707-7.309 25.56-13.683 53.238-47.917 53.298-29.184 0.050-44.343-21.123-41.623-45.839 2.861-26.232-14.677-72.553 40.267-66.911 38.49 3.945 33.029-26.303 39.163-45.397 17.86-55.607 32.346-112.259 49.564-168.077 14.075-45.628 45.387-69.602 93.174-56.159 44.885 12.619 55.939 49.915 46.221 90.955-19.336 81.669-41.864 162.575-63.066 243.812 6.897 4.367 13.784 8.744 20.681 13.141zM878.461 814.401c-32.005-2.992-52.174-20.49-73.116-36.101-70.234-52.385-141.141-103.886-209.94-158.037-31.724-24.957-53.961-18.301-69.351 14.175-11.224 23.733-8.935 33.119 22.508 54.563 71.208 48.54 145.338 97.039 208.444 155.809 54.372 50.638 117.64 59.432 174.311 41.823 45.97-14.296 80.434-65.034 87.401-123.904 8.624-72.845-41.472-127.95-84.821-153.419-78.175-45.99-135.821-119.908-221.917-153.319-15.962-6.184-18.542-50.266-47.224-12.559-19.155 25.148-33.149 47.616 1.777 73.065 77.864 56.722 154.514 115.14 231.133 173.548 32.457 24.747 55.366 53.85 29.003 96.658-11.866 19.265-32.156 23.401-48.208 27.698zM189.631-8.975c-105.733 2.078-145.729 55.517-171.028 120.33-23.251 59.553 3.203 108.544 51.14 145.498 21.293 16.414 43.55 45.759 73.015 8.353 21.102-26.795 41.592-51.451 0.141-78.607-25.088-16.404-34.936-38.33-15.892-66.721 21.534-32.095 47.305-31.041 73.718-8.473 39.916 34.093 54.884 0.141 73.979-25.008 24.586-32.387-1.114-45.538-22.357-61.36-26.373-19.657-54.212-34.435-62.715-34.013z" />
<glyph unicode="&#xe905;" glyph-name="HedgingNPruning" d="M841.728 813.759c1.165-37.938-6.154-74.551-27.849-105.532-24.737-35.278-41.111-69.562-43.54-115.612-3.433-65.034-67.694-104.759-128.793-90.524-65.928 15.37-111.265 85.213-77.814 143.902 57.424 100.824 127.779 194.419 194.67 289.661 18.663 26.574 39.012 14.507 53.75-8.282 22.347-34.555 31.071-72.804 29.576-113.614zM662.116 464.735c22.608-16.384 67.423 35.84 73.025-23.211 4.407-46.391 20.109-100.523-33.812-131.735-138.059-79.892-244.987-185.715-294.701-341.635-6.435-20.179-20.952-36.794-44.403-30.981-32.397 8.061-33.672 34.163-28.983 61.631 23 134.395 90.493 244.545 183.708 341.343 30.328 31.483 66.68 54.322 70.315 110.271 3.373 51.632 50.307-1.034 74.852 14.316zM452.327 714.742c20.159-5.853 69.23 0.381 75.123-25.088 9.547-41.352-4.698-88.195-8.895-132.728-62.725 7.459-108.554-38.47-164.462-52.043-105.241-25.52-197.662-71.971-269.834-154.935-19.356-22.247-42.948-43.279-72.082-15.4-25.379 24.275-5.441 47.666 8.764 68.357 50.768 73.828 112.108 136.704 192.492 178.678 62.414 32.597 133.401 51.26 174.652 116.927 10.35 16.454 33.34 21.042 64.241 16.233zM799.031 509.239c-26.243 159.292 110.833 150.598 186.579 203.595 9.417 6.616 22.046 6.114 30.891-3.976 11.595-13.302 4.929-26.825-1.446-39.444-45.337-89.931-117.83-141.663-216.024-160.176zM531.657 433.393c-0.914-23.341-5.903-39.534-23.291-34.234-37.336 11.384-61.219 38.51-68.417 77.272-3.403 18.322 3.333 37.165 26.293 29.124 36.744-12.89 56.129-43.239 65.416-72.162z" />
<glyph unicode="&#xe906;" glyph-name="Lawncare" d="M624.56 31.483c-35.238 0-70.616 1.877-105.713-0.402-75.234-4.849-120.742 20.681-113.112 104.287 3.273 35.88-18.221 60.476-36.995 86.659-65.084 90.644-129.024 182.152-195.564 271.691-22.799 30.68-20.912 47.767 11.997 69.461 27.889 18.402 48.489 33.621 69.963-4.518 4.287-7.61 9.758-14.828 15.862-21.102 30.037-30.921 56.802-79.33 106.747-61.761 44.755 15.721 24.847 66.57 29.405 102.36 18.211 142.728 101.205 233.683 237.558 257.466 137.698 24.034 293.918-57.063 350.67-182.031 57.374-126.333 27.889-280.937-82.914-367.174-51.391-39.996-69.923-80.846-62.675-140.82 10.049-82.934-26.052-121.183-110.712-114.628-37.958 2.931-76.338 0.512-114.517 0.512zM849.98 364.313c57.625 42.004 70.445 86.638 78.296 131.996 16.384 94.499-36.774 184.079-130.761 225.591-93.043 41.080-199.7 25.299-251.342-38.631-14.205-17.579-35.348-37.135-23.893-61.711 10.069-21.635 36.101-13.623 55.467-14.195 43.932-1.255 87.944-0.392 131.925-0.572 136.122-0.572 139.866-4.216 140.298-136.363 0.1-29.033 0.010-58.117 0.010-106.115zM730.483 322.52c47.154 106.054-71.309 79.029-104.468 120.681-11.947 14.979-60.426-38.5-97.621-54.352-40.468-17.267-1.315-61.36-8.302-95.202-16.284-78.587 72.734-63.699 109.568-95.684 20.048-17.418 59.392 40.418 98.525 53.991 28.15 9.758 9.286 45.949 2.299 70.566zM217.64 691.28c-0.793-70.797-57.575-124.808-125.661-120.832-38.852 2.279-78.878 11.726-84.992 58.077-5.491 41.663 112.178 130.168 162.947 127.558 46.291-2.369 44.163-37.376 47.706-64.803zM673.24 322.67c-0.723-26.744-12.76-44.675-40.609-46.723-26.594-1.948-45.598 10.481-48.901 37.888-3.825 31.724 13.493 50.377 44.273 51.501 26.805 0.974 42.365-15.4 45.237-42.667z" />
<glyph unicode="&#xe907;" glyph-name="Lawnmowing" d="M148.49 92.511c-142.848 81.95-185.294 191.267-115.732 298.034 53.941 82.783 165.547 89.028 221.485 8.302 28.672-41.392 64.683-62.755 110.733-75.244 109.759-29.696 218.865-61.741 328.794-90.714 46.261-12.168 75.033-26.423 38.45-78.888-11.575-16.635-12.459-40.488-19.346-60.657-11.304-33.24 24.666-84.952-19.356-99.348-44.675-14.577-97.21-6.064-146.301-5.883-26.433 0.11-33.089 16.856-36.302 42.295-19.376 152.937-50.447 198.074-141.553 212.992-99.95 16.374-157.706-23.070-220.873-150.889zM335.631-63.96c-74.501 1.546-134.495 65.054-131.082 138.752 3.243 70.475 62.374 128.141 132.347 129.114 72.463 0.974 136.664-62.534 136.393-134.967-0.251-73.216-63.709-134.455-137.658-132.899zM333.955 117.328c-27.909-4.939-45.146-20.058-43.269-49.875 2.168-34.244 22.628-49.865 55.758-45.327 29.887 4.076 40.458 26.022 38.159 53.559-2.47 29.957-22.387 41.512-50.648 41.643zM890.398-63.93c-72.563-0.030-135.871 61.821-136.051 132.979-0.201 71.339 62.825 134.566 134.425 134.897 71.69 0.361 135.118-62.032 135.76-133.522 0.663-72.172-61.38-134.275-134.134-134.355zM896.482 20.841c28.321 5.050 42.657 24.355 39.805 56.079-2.66 29.696-22.93 41.311-49.443 40.087-27.417-1.225-44.273-17.027-44.042-46.040 0.271-32.366 16.836-49.584 53.68-50.126zM383.357 422.129c-0.683-22.518-6.857-35.94-21.614-43.952-24.004-12.961-43.108-1.586-55.226 17.137-89.811 138.642-178.758 277.835-267.194 417.35-13.011 20.51-10.682 43.098 11.656 55.878 36.442 20.841 56.471-4.196 73.828-31.342 80.715-126.344 161.38-252.677 241.604-379.312 8.001-12.599 12.92-27.136 16.946-35.76zM721.247 264.242c-85.143 23.572-170.295 47.094-255.448 70.696-46.030 12.74-39.765 37.456-15.049 66.319 51.953 60.597 119.657 55.035 185.886 38.651 64.090-15.842 121.033-46.692 134.566-120.671 6.817-37.346 3.805-70.576-49.955-54.995z" />
<glyph unicode="&#xe908;" glyph-name="MyJobs7" horiz-adv-x="1026" d="M478.463 953.963c-78.924-4.248-160.755-28.171-225.593-66.18-131.466-76.688-215.532-203.011-238.784-359.071-4.695-31.972-5.366-120.51-1.118-151.141 11.179-80.266 35.997-150.023 73.558-206.812 78.924-119.616 210.837-202.341 353.928-222.463 201.67-28.171 393.279 56.79 502.386 222.91 51.2 78.030 76.912 172.157 76.912 282.383-0.224 114.026-32.196 212.849-98.376 301.834-20.122 27.053-61.485 69.757-87.42 90.55-79.818 63.497-175.064 99.493-285.066 107.319-29.96 2.012-42.928 2.236-70.428 0.671zM585.782 914.166c49.635-7.825 90.327-20.569 133.254-41.586 113.355-55.672 200.328-158.295 242.138-284.842 48.517-147.34 24.37-283.5-75.123-423.462-24.594-34.879-44.269-55.224-55.001-57.237-10.285-2.012-23.476 3.801-40.915 18.334s-27.948 19.899-69.086 34.208c-18.334 6.26-41.586 15.651-51.2 20.793-41.362 21.24-61.261 57.684-59.025 106.872 1.118 23.7 5.59 35.549 21.687 57.907 4.919 6.931 10.955 19.228 13.638 27.948 8.943 29.736 11.85 35.773 27.948 60.367 24.147 36.667 25.712 44.493 14.309 68.192-9.838 20.346-9.838 31.301 0.671 57.013 18.334 45.387 16.098 106.201-5.813 152.035-12.744 26.606-32.866 45.61-56.566 53.436-12.297 4.024-20.346 11.626-16.321 15.651 4.248 4.248 2.236 8.049-4.024 8.049-3.577 0-19.675 4.024-35.773 8.72-35.102 10.732-57.907 12.968-87.644 9.167-74.9-9.39-129.23-52.541-145.551-115.591-7.155-28.395-6.26-57.237 3.354-96.587 6.037-24.37 8.049-37.114 8.049-51.647 0-17.663-0.671-20.569-7.825-34.879-13.415-26.606-10.732-38.903 16.321-74.452 10.508-14.086 16.769-24.594 19.452-33.314 9.39-31.525 12.968-40.692 25.041-61.708l12.968-22.582-0.224-40.468c-0.224-36.667-0.671-41.586-4.919-50.306-11.179-23.029-38.232-40.245-104.636-66.627-37.338-14.756-49.859-21.017-62.379-30.407-22.134-16.545-25.712-18.557-35.773-20.122-7.602-1.341-10.508-0.447-19.899 5.813-23.476 15.651-65.509 73.782-90.774 125.652-50.082 101.953-64.391 219.78-39.35 322.403 15.651 64.168 49.188 130.795 92.786 185.125 73.782 91.445 188.479 156.059 300.045 169.027 11.626 1.341 24.594 2.907 28.842 3.354 16.769 2.012 84.961-0.671 107.319-4.248z" />
<glyph unicode="&#xe909;" glyph-name="MyJobs10" horiz-adv-x="1020" d="M505.723 935.611c-3.407-0.359-13.988-1.614-23.313-2.511-133.246-14.526-256.807-95.944-324.237-213.408-26.183-45.73-43.937-98.275-51.648-153.331-4.125-29.411-4.125-85.901 0-114.774 3.766-26.362 13.091-62.588 21.699-85.184 12.195-32.101 36.046-75.5 59.718-109.035 4.304-6.277 7.353-11.836 6.635-12.553-0.538-0.717-19.727-1.435-42.323-1.793l-41.068-0.717v-22.955h150.641v143.468h-13.271c-10.401 0-13.45-0.538-14.347-2.869-0.538-1.614-1.255-11.477-1.255-21.879-0.179-10.581-0.717-28.514-1.435-39.812l-1.076-20.623-7.891 9.863c-60.615 75.679-85.722 194.399-63.843 300.565 19.727 94.689 82.135 185.432 164.988 239.77 19.547 12.733 57.028 31.204 78.728 38.736 20.623 7.353 45.551 13.45 70.12 17.575 27.618 4.483 88.95 4.483 116.567 0 70.658-11.477 133.963-38.378 188.301-79.983 16.857-12.733 46.806-42.502 61.87-61.332 42.323-52.904 68.685-116.388 77.114-186.329 2.69-22.955 2.152-77.473-1.076-100.607-9.684-69.94-41.068-136.294-93.433-198.165l-7.891-9.325 8.608-6.456c4.842-3.587 12.733-9.684 17.575-13.629 5.021-3.945 9.863-7.173 10.76-7.173 1.076 0 6.815 5.918 12.733 12.912 41.964 50.214 72.63 110.649 89.309 176.644 36.046 141.854-6.635 292.853-112.801 399.737-78.728 79.087-181.845 122.485-297.695 125.175-16.678 0.359-33.356 0.359-36.764 0zM491.377 775.106c-87.336-9.505-155.304-85.184-154.945-171.982 0.179-18.292 0.897-23.493 6.994-45.73 9.146-32.818 9.325-47.165 1.255-74.424-10.222-33.894-8.070-43.758 16.678-77.114 27.976-37.302 41.964-61.87 49.496-86.081 3.407-10.76 4.125-17.754 4.304-34.074 0-20.444-0.179-20.982-6.815-34.432-12.553-25.645-31.922-38.736-89.667-61.332-95.765-37.481-132.528-67.071-151.358-122.127-5.559-16.319-9.505-41.068-9.505-59.539v-14.885h735.092l1.255 6.635c1.793 9.863-0.538 40.888-4.483 57.208-8.967 37.122-29.052 64.022-65.278 87.695-19.009 12.195-37.84 21.341-84.108 40.171-39.812 16.14-49.317 20.803-65.995 31.563-15.781 10.043-28.335 23.134-33.894 34.97-4.125 8.608-4.663 12.195-4.663 28.694 0 15.064 0.897 21.341 4.304 31.384 7.532 22.417 24.389 52.545 44.116 78.907 10.76 14.167 20.623 29.411 22.775 34.97 5.201 13.45 5.201 30.487-0.179 52.007-6.456 25.645-6.097 39.454 2.152 64.022 12.195 36.943 12.912 75.5 1.973 112.981-11.298 39.454-21.699 51.11-63.843 72.272-16.14 8.249-36.405 18.83-45.013 23.672-35.15 19.727-74.782 28.694-110.649 24.569zM531.727 728.658c61.153-8.787 118.54-38.198 134.86-69.402 8.249-15.781 10.401-26.9 10.222-55.235-0.179-31.384-3.945-51.828-13.629-74.424-9.863-23.134-10.222-27.976-3.407-47.524 9.146-26.183 7.532-34.791-9.863-54.876-12.195-14.167-16.319-22.596-19.727-41.247-3.945-20.982-7.891-29.77-24.031-54.518-7.891-11.836-15.602-25.286-17.216-29.59-4.304-12.015-3.945-37.122 0.897-52.366 7.711-23.851 28.335-48.6 55.773-66.892 16.14-10.76 31.025-17.037 66.892-27.976 32.28-10.043 49.676-18.113 70.299-32.998 38.198-27.438 62.229-51.828 65.457-66.712 5.739-25.107-23.313-30.128-117.823-20.085-88.771 9.325-319.395 8.967-450.668-0.538-44.296-3.228-54.876-2.869-65.457 2.152l-8.429 4.125 1.076 9.684c2.511 20.982 13.45 39.633 31.742 53.262 14.705 11.119 51.469 29.411 81.418 40.53 59.36 22.237 74.603 29.052 95.585 43.578 38.198 26.362 52.724 60.615 44.475 104.193-6.635 34.612-34.791 96.841-55.773 123.023-6.635 8.429-13.629 18.471-15.423 22.417-5.021 10.581-4.483 27.259 1.435 46.627 7.353 24.031 6.815 40.35-2.152 67.25-6.635 19.906-6.994 21.52-6.994 45.73-0.179 29.77 2.152 40.35 14.347 65.278 6.994 13.988 11.119 19.727 23.851 32.639 24.389 24.389 50.034 35.329 84.467 35.508 8.429 0 20.982-0.717 27.797-1.614z" />
<glyph unicode="&#xe90a;" glyph-name="MyJobs2" horiz-adv-x="1236" d="M495.976 929.326c-40.746-4.273-71.421-20.755-78.441-42.272-2.9-8.699-3.205-17.245-1.679-45.477 2.137-41.052-5.036-49.75-43.341-52.039-8.851-0.458-47.003 0.305-84.85 1.831-58.144 2.137-76.762 2.289-122.086 0.916-56.007-1.831-64.095-2.594-74.931-7.936-8.393-4.273-24.417-20.297-30.674-30.674-10.072-16.482-9.462-0.153-8.546-274.694 0.61-179.314 0.305-263.554-0.916-300.333-3.052-86.681 1.373-113.54 21.976-132.616 12.361-11.293 30.064-17.55 56.77-19.992 8.699-0.763 60.128-0.61 124.070 0.458 83.782 1.221 180.077 1.068 414.331-0.458 322.156-2.289 455.077-2.289 465.912 0.153 15.871 3.51 31.437 14.956 38.915 28.538 2.289 4.273 5.646 13.124 7.478 19.686l3.357 11.903 1.373 279.273c0.763 153.676 1.373 295.754 1.526 315.899 0.305 30.827-0.153 38.61-2.594 48.835-7.478 32.658-22.281 47.308-56.923 56.16l-13.43 3.357-123.613-0.61c-132.311-0.458-140.857-0.153-155.813 6.867-14.040 6.562-13.582 5.494-13.124 42.425 0.305 28.996 0 33.421-2.747 42.272-7.63 24.265-28.538 38.61-66.079 45.019-24.417 4.273-222.655 6.867-255.924 3.51zM738.318 880.033c32.048-7.478 40.289-17.855 40.594-50.513 0.153-27.469-5.341-35.1-28.232-38.915-6.257-0.916-57.838-1.526-140.399-1.526-143.909 0-142.841 0-149.251 9.004-5.341 7.325-8.241 22.281-7.173 35.405 1.984 24.417 7.783 34.489 24.112 41.815 17.397 7.783 24.417 8.241 141.62 7.783 95.38-0.305 108.81-0.763 118.729-3.052zM1111.139 743.297c12.514-3.357 19.381-10.988 23.807-26.401 2.747-10.072 4.273-46.545 2.747-71.878l-1.068-19.534-10.988-5.036c-15.566-7.173-31.742-10.377-48.682-9.614-20.144 0.916-25.486 3.815-40.441 22.281-13.43 16.939-20.297 21.213-40.746 25.638-14.803 3.205-55.855 3.663-70.963 0.763-23.807-4.426-27.775-6.562-46.24-25.333-14.193-14.345-18.313-17.55-23.959-19.076-5.189-1.373-22.739-1.373-75.541 0-63.485 1.831-105.605 1.679-374.653-0.61-27.317-0.153-27.317-0.153-48.835 21.976-17.55 18.008-20.907 19.839-41.967 22.891-14.345 1.984-56.312 1.984-69.894-0.153-18.466-2.9-25.486-6.257-36.168-17.855-5.341-5.646-12.666-13.43-16.329-17.245-9.462-10.225-15.261-12.514-32.963-13.277s-31.132 1.984-47.766 9.614l-10.988 5.036-1.068 22.433c-1.679 33.269-0.305 60.28 3.663 72.947 3.968 12.361 11.903 21.365 20.755 23.349 9.156 2.289 980.049 1.221 988.29-0.916zM310.863 609.765c4.273-1.221 9.92-4.273 12.514-6.715 3.968-3.815 4.731-5.494 4.731-11.903 0-4.578-1.068-9.156-2.9-12.209-6.41-10.225-25.486-17.245-47.461-17.245-19.534 0-33.269 4.426-41.357 13.277-5.799 6.257-7.478 10.072-7.478 17.855 0 5.952 0.61 7.173 5.036 9.767 6.41 3.968 17.855 7.63 29.301 9.462 12.361 1.831 37.847 0.61 47.614-2.289zM994.699 608.391c18.313-7.783 18.771-26.554 0.763-36.321-22.433-12.209-56.618-13.43-75.846-3.052-11.751 6.41-16.024 19.686-9.92 31.132 4.273 7.936 24.112 11.903 55.549 11.293 17.855-0.305 24.265-0.916 29.453-3.052zM170.921 563.677c7.478-1.984 10.072-3.968 25.943-20.144 16.176-16.634 18.313-18.313 27.469-21.213 14.65-4.883 27.317-6.41 51.124-6.41 23.349 0 35.71 1.526 51.582 6.257 9.92 2.9 11.14 3.815 28.232 21.213 13.887 14.040 19.229 18.466 23.807 19.686 4.273 1.068 46.851 0.916 146.504-0.763 145.13-2.289 194.117-1.984 248.446 1.831 51.887 3.51 72.336 2.594 85.155-3.968 2.9-1.526 12.056-9.92 20.297-18.923 14.803-16.024 15.108-16.176 27.317-19.992 32.048-10.072 86.987-8.088 110.793 4.273 4.12 1.984 11.14 8.699 18.313 17.092 9.004 10.377 14.040 14.803 20.907 18.313 8.546 4.273 9.92 4.578 27.317 4.578 19.992 0 32.811-2.137 43.646-7.325l6.867-3.357 1.373-12.209c0.763-6.715 1.373-106.673 1.526-222.045 0.153-226.928 0.458-220.366-8.088-235.932-2.9-5.646-5.646-8.393-10.988-10.988-10.53-5.189-35.71-6.715-78.898-4.883-21.518 1.068-199.459 1.526-470.338 1.373-321.087-0.153-437.68 0.305-443.174 1.526-4.12 1.068-9.462 3.205-11.903 4.883-8.393 5.952-13.735 21.060-15.566 44.104-0.458 5.494-0.916 100.874-1.221 212.125-0.153 156.576 0.153 203.732 1.679 208.768 2.289 8.393 9.156 15.871 17.703 19.992 12.819 6.104 36.626 7.020 54.176 2.137z" />
<glyph unicode="&#xe90b;" glyph-name="google-plus" d="M325.8 502.6v-111.8h184.8c-7.4-48-55.8-140.6-184.8-140.6-111.2 0-202 92.2-202 205.8s90.8 205.8 202 205.8c63.4 0 105.6-27 129.8-50.2l88.4 85.2c-56.8 53-130.4 85.2-218.2 85.2-180.2-0.2-325.8-145.8-325.8-326s145.6-325.8 325.8-325.8c188 0 312.8 132.2 312.8 318.4 0 21.4-2.4 37.8-5.2 54h-307.6zM1024 512h-96v96h-96v-96h-96v-96h96v-96h96v96h96z" />
<glyph unicode="&#xe90c;" glyph-name="facebook" d="M608 768h160v192h-160c-123.514 0-224-100.486-224-224v-96h-128v-192h128v-512h192v512h160l32 192h-192v96c0 17.346 14.654 32 32 32z" />
<glyph unicode="&#xe90d;" glyph-name="instagram" d="M928 960h-832c-52.8 0-96-43.2-96-96v-832c0-52.8 43.2-96 96-96h832c52.8 0 96 43.2 96 96v832c0 52.8-43.2 96-96 96zM704 800c0 17.6 14.4 32 32 32h128c17.6 0 32-14.4 32-32v-128c0-17.6-14.4-32-32-32h-128c-17.6 0-32 14.4-32 32v128zM512 640c106 0 192-86 192-192s-86-192-192-192c-106 0-192 86-192 192s86 192 192 192zM896 96v0c0-17.6-14.4-32-32-32h-704c-17.6 0-32 14.4-32 32v0 416h70.4c-4.2-20.6-6.4-42-6.4-64 0-176.8 143.2-320 320-320s320 143.2 320 320c0 22-2.2 43.4-6.4 64h70.4v-416z" />
<glyph unicode="&#xe90e;" glyph-name="twitter" d="M1024 733.6c-37.6-16.8-78.2-28-120.6-33 43.4 26 76.6 67.2 92.4 116.2-40.6-24-85.6-41.6-133.4-51-38.4 40.8-93 66.2-153.4 66.2-116 0-210-94-210-210 0-16.4 1.8-32.4 5.4-47.8-174.6 8.8-329.4 92.4-433 219.6-18-31-28.4-67.2-28.4-105.6 0-72.8 37-137.2 93.4-174.8-34.4 1-66.8 10.6-95.2 26.2 0-0.8 0-1.8 0-2.6 0-101.8 72.4-186.8 168.6-206-17.6-4.8-36.2-7.4-55.4-7.4-13.6 0-26.6 1.4-39.6 3.8 26.8-83.4 104.4-144.2 196.2-146-72-56.4-162.4-90-261-90-17 0-33.6 1-50.2 3 93.2-59.8 203.6-94.4 322.2-94.4 386.4 0 597.8 320.2 597.8 597.8 0 9.2-0.2 18.2-0.6 27.2 41 29.4 76.6 66.4 104.8 108.6z" />
<glyph unicode="&#xe90f;" glyph-name="search" horiz-adv-x="994" d="M689.153 291.522c63.911 69.688 103.078 162.973 103.078 265.405 0 217.171-176.052 393.222-393.222 393.222s-393.222-176.052-393.222-393.222c0-217.171 176.052-393.222 393.222-393.222 89.276 0 171.602 29.751 237.607 79.879l295.768-297.044c6.369-6.618 15.25-10.779 25.103-10.945 9.943 0.016 18.871 4.215 25.146 10.925 6.467 6.595 10.447 15.612 10.447 25.559s-3.98 18.964-10.435 25.545zM72.158 561.913c0 179.11 145.197 324.307 324.307 324.307s324.307-145.197 324.307-324.307c0-179.11-145.197-324.307-324.307-324.307-178.649 1.142-323.166 145.658-324.307 324.198z" />
<glyph unicode="&#xe910;" glyph-name="MyJobs3" horiz-adv-x="1002" d="M264.892 888.863c-27.519-1.872-41.372-6.552-49.609-16.474-12.168-14.602-11.794-7.114-11.419-204.426 0.374-105.208 1.123-182.148 2.246-187.016 2.808-12.355 6.739-18.533 14.415-22.464 16.661-8.237 11.794-8.237 316.56-8.237 272.942 0 290.165 0.187 301.21 3.37 15.163 4.306 21.716 10.483 25.647 23.775 2.621 9.36 2.995 30.701 3.182 192.819 0.374 190.385 0.374 189.449-7.488 201.43-3.744 5.803-13.666 10.671-27.519 13.479-8.424 1.685-73.384 2.434-266.764 2.808-140.589 0.187-260.586 0.936-266.764 1.498s-21.341 0.187-33.697-0.562zM819.387 845.245c2.059-2.059 2.059-350.631 0-352.69s-565.914-2.059-567.974 0c-2.059 2.059-2.059 319.743 0 338.65l1.685 14.602 31.076 0.562c64.585 1.31 533.716 0.374 535.213-1.123zM333.221 744.717v-50.545h413.718v101.090h-413.718v-50.545zM731.963 744.717v-31.824h-383.766v63.649h383.766v-31.824zM263.582 379.484c-34.633-2.995-64.211-12.73-120.371-39.5s-74.32-34.82-95.473-41.933l-18.72-6.178-1.498-8.799c-0.749-4.867-1.31-12.73-0.936-17.41l0.562-8.611 10.671 0.374c22.652 0.749 56.535 12.168 110.45 37.253 50.919 23.588 77.315 32.199 111.199 36.317 32.761 3.931 64.398-0.749 89.296-13.479 15.912-7.863 25.085-14.415 47.737-33.884 40.061-34.445 58.407-45.49 83.68-50.919 7.301-1.498 32.573-3.931 56.161-5.616 76.94-5.054 90.981-9.173 93.976-27.706 0.749-5.616 0-7.488-5.242-13.291-8.611-9.36-22.652-13.853-51.481-16.474-37.253-3.37-101.277 1.685-155.191 12.543-30.888 5.99-43.244 7.114-54.289 4.68-12.168-2.808-17.784-8.050-17.784-16.848 0-13.104 9.922-20.405 40.061-29.765 43.244-13.291 94.725-20.78 144.333-20.78 61.59 0 91.355 8.611 143.023 41.746 9.922 6.178 33.135 20.592 51.668 31.824 44.741 27.144 47.737 29.391 67.393 48.111 24.149 22.839 32.012 28.829 47.55 36.317 27.519 13.104 54.85 15.725 63.275 5.803 5.616-6.365 5.429-11.794-0.749-21.154-8.799-12.917-6.365-11.232-202.741-141.151-33.509-22.090-76.753-52.23-96.41-67.019-55.038-41.559-80.872-51.855-117.938-47.175-34.258 4.306-55.599 14.789-122.056 59.531-64.211 43.244-85.365 51.668-129.732 52.042-28.455 0.187-38.751-1.685-59.343-11.045-23.026-10.671-38.377-30.514-41.185-53.166l-1.123-9.547h5.616c10.296 0 27.144 5.616 49.796 16.848 25.46 12.355 40.623 16.099 58.407 14.227 23.4-2.621 44.929-11.607 79.561-33.509 107.080-67.58 136.845-80.123 184.395-77.502 39.313 2.246 70.388 16.099 127.672 57.097 19.844 14.040 66.27 45.49 102.962 69.639 196.001 128.608 192.819 126.362 203.864 149.388 7.114 14.415 7.488 38.751 0.936 55.225-5.99 15.351-16.661 27.893-28.455 33.884-11.981 5.99-21.528 6.178-37.628 1.123-6.365-2.059-16.848-4.306-23.213-4.867-13.479-1.498-16.848 0-35.194 14.976-7.114 5.99-15.163 11.794-18.159 13.291-7.114 3.744-21.903 3.37-40.997-0.936-29.391-6.739-37.815-5.054-64.585 13.291-11.794 8.050-16.287 9.922-24.149 10.671-8.799 0.749-11.419-0.187-29.765-9.735-15.538-8.237-24.149-11.419-37.815-14.040-9.735-2.059-21.903-5.99-27.144-8.799s-20.405-15.351-33.509-28.080c-34.071-32.199-49.796-38.751-76.94-31.824-17.035 4.306-26.208 10.296-42.682 27.893-33.884 35.943-42.869 43.993-56.91 50.732-17.971 8.424-38.938 13.666-65.334 16.099-11.794 0.936-21.716 1.685-22.277 1.685-0.562-0.187-8.237-0.936-17.223-1.872zM677.113 330.811c4.493-2.059 8.050-4.68 8.050-5.616 0-4.493-8.050-16.474-16.287-24.336-4.867-4.867-16.474-13.853-25.834-20.031-9.173-6.178-18.907-13.291-21.341-16.099-4.118-4.306-5.99-4.867-17.784-4.867-23.026 0-32.948 5.054-32.948 17.035 0 7.863 6.552 14.040 21.903 20.405 7.863 3.37 23.4 12.168 34.633 19.844 26.957 18.346 35.194 20.592 49.609 13.666zM786.439 317.894c4.118-2.246 4.68-9.173 1.498-21.716-2.995-11.794-15.538-24.898-35.007-36.692-8.986-5.429-23.775-14.602-32.761-20.592-19.095-12.543-30.701-16.474-47.737-16.474h-12.168l1.31 8.050c0.749 4.306 4.118 14.040 7.675 21.716 11.607 24.524 35.569 43.057 58.969 45.678 6.739 0.936 13.291 3.182 19.656 7.301 22.090 14.040 30.701 16.848 38.564 12.73z" />
<glyph unicode="&#xe911;" glyph-name="2_png" horiz-adv-x="979" d="M576.557 842.908c-88.376-8.014-156.049-35.395-173.635-69.899-4.23-8.237-4.452-13.357-4.452-103.513v-94.609l-9.35 1.558c-19.144 3.562-108.188 1.781-134.233-2.226-75.464-12.243-125.997-35.84-141.357-66.115-4.23-8.459-4.452-13.357-4.452-173.635s0.223-165.176 4.452-173.635c15.36-30.275 65.892-53.871 141.357-66.115 34.504-5.565 116.87-5.565 151.374 0 75.464 12.243 125.997 35.84 141.357 66.115 3.784 7.569 4.452 13.134 4.452 42.296v33.391l9.572-1.558c18.922-3.562 107.965-1.781 134.010 2.226 62.998 10.24 106.184 27.158 127.555 50.087 20.035 21.37 18.254-2.226 18.254 251.993 0 220.383 0 225.28-4.452 233.739-15.137 29.607-62.776 52.536-134.678 64.779-26.045 4.452-100.397 7.346-125.774 5.12zM697.878 820.87c58.991-9.127 103.958-28.049 116.87-48.974 19.812-32.278-28.717-64.334-119.096-78.358-17.809-2.894-38.289-3.784-75.687-3.784s-57.878 0.89-75.687 3.784c-90.379 14.024-138.908 46.080-119.096 78.358 14.915 24.264 71.012 44.967 141.357 52.090 27.826 2.894 104.626 1.113 131.339-3.117zM463.471 694.205c19.812-7.791 50.977-15.805 80.807-20.703 34.504-5.565 116.87-5.565 151.374 0 47.416 7.791 83.478 19.367 109.746 35.172l13.802 8.459v-31.165c0-22.706-0.89-32.946-3.117-37.398-8.237-15.805-33.391-30.943-68.563-41.183-117.76-34.059-296.515-11.353-323.673 41.183-2.226 4.452-3.117 14.692-3.117 37.398v31.165l14.024-8.459c7.569-4.675 20.48-11.13 28.717-14.47zM435.423 609.391c24.042-14.47 58.991-25.823 104.403-33.837 31.833-5.565 128.445-5.565 160.278 0 45.412 8.014 80.362 19.367 104.403 33.837 7.123 4.23 13.357 7.791 13.802 7.791s0.89-16.25 0.89-35.84c0-32.278-0.445-36.73-4.452-43.186-13.134-21.37-58.101-39.847-119.096-49.419-26.268-4.23-118.873-5.565-135.123-2.226-7.123 1.558-8.459 2.671-8.459 7.346 0 19.812-26.49 44.077-65.002 59.437-16.918 6.901-53.871 17.141-61.217 17.141-4.897 0-5.12 0.668-5.12 23.374 0 12.911 0.445 23.374 0.89 23.374s6.678-3.562 13.802-7.791zM408.487 555.965c58.991-9.127 103.958-28.049 116.87-48.974 19.812-32.278-28.717-64.334-119.096-78.358-34.059-5.343-117.315-5.343-151.374 0-90.379 14.024-138.908 46.080-119.096 78.358 14.915 24.264 71.012 44.967 141.357 52.090 27.826 2.894 104.626 1.113 131.339-3.117zM814.748 429.078c-13.134-21.37-57.878-39.847-119.096-49.419-26.268-4.23-118.873-5.565-135.123-2.226l-8.459 1.781v88.821l9.572-1.558c18.922-3.562 107.965-1.781 134.010 2.226 46.748 7.569 83.256 19.367 109.078 34.727l13.357 8.237 0.668-37.621c0.445-34.504 0.223-38.289-4.007-44.967zM173.635 429.523c60.995-24.264 149.593-31.833 238.191-20.257 36.508 4.675 89.711 23.374 111.75 38.957l6.233 4.452v-31.388c0-22.929-0.89-32.946-3.117-37.621-8.237-15.805-33.391-30.943-68.563-41.183-117.76-34.059-296.515-11.353-323.673 41.183-2.226 4.452-3.117 14.692-3.117 37.398v31.165l14.024-8.459c7.569-4.675 20.257-11.13 28.271-14.247zM814.748 306.643c-13.134-21.37-57.878-39.847-119.096-49.419-26.268-4.23-118.873-5.565-135.123-2.226l-8.459 1.781v102.177l9.572-1.558c18.922-3.562 107.965-1.781 134.010 2.226 46.748 7.569 83.256 19.367 109.078 34.727l13.357 8.237 0.668-44.299c0.445-41.183 0.223-44.744-4.007-51.645zM146.031 344.487c24.042-14.47 58.991-25.823 104.403-33.837 31.833-5.565 128.445-5.565 160.278 0 45.412 8.014 80.362 19.367 104.403 33.837 7.123 4.23 13.357 7.791 13.802 7.791s0.89-16.25 0.89-36.285c0-34.727-0.223-36.508-5.343-44.077-5.788-8.459-24.264-22.038-29.607-22.038-1.781 0-4.675-1.558-6.456-3.339-8.682-8.459-65.892-21.816-112.195-25.823-104.403-9.127-217.489 15.583-240.417 52.536-4.007 6.456-4.452 10.908-4.452 43.186 0 19.59 0.445 35.84 0.89 35.84s6.678-3.562 13.802-7.791zM174.080 224.501c43.854-17.363 89.711-24.487 156.494-24.487 76.355 0 127.11 9.35 173.19 32.278 27.158 13.579 26.045 14.915 26.045-26.045 0-31.165-0.445-35.617-4.452-42.073-13.134-21.37-58.101-39.847-119.096-49.419-34.059-5.343-117.315-5.343-151.374 0-60.995 9.572-105.962 28.049-119.096 49.419-4.007 6.456-4.452 10.908-4.452 45.19v38.066l14.024-8.459c7.569-4.675 20.48-11.13 28.717-14.47z" />
<glyph unicode="&#xe91f;" glyph-name="right" horiz-adv-x="658" d="M141.587 909.372c-23.455-12.299-34.038-30.892-34.324-59.495 0-16.304 1.43-22.311 7.151-32.036 4.004-6.579 82.092-91.817 173.908-189.64 91.531-97.823 166.472-178.771 166.472-179.915s-75.227-82.378-167.33-180.773c-92.103-98.109-170.476-183.634-173.908-189.926-9.439-17.734-8.867-47.196 1.716-65.216 11.441-19.164 26.887-28.603 48.912-30.034 14.302-0.858 19.736 0.286 29.461 5.721 16.59 9.153 391.008 408.742 402.163 429.050 10.011 18.878 10.583 43.477 1.144 61.497-9.725 18.878-389.864 423.044-404.165 429.908-14.016 6.865-38.901 7.437-51.2 0.858z" />
<glyph unicode="&#xe920;" glyph-name="left" horiz-adv-x="658" d="M464.804 908.514c-14.016-6.865-394.154-411.602-403.879-429.908-9.439-18.020-8.867-42.619 1.144-61.497 11.155-20.308 385.573-419.897 402.163-429.050 9.725-5.435 15.16-6.579 29.461-5.721 22.025 1.43 37.47 10.869 48.912 30.034 10.583 18.020 11.155 47.482 1.716 65.216-3.432 6.293-81.806 91.817-173.908 189.926-92.103 98.396-167.33 179.629-167.33 180.773s74.941 82.092 166.758 179.915c91.531 97.823 169.618 183.061 173.622 189.64 9.153 15.446 10.011 46.337 1.716 62.069-16.304 31.178-50.628 43.477-80.375 28.603z" />
<glyph unicode="&#xe921;" glyph-name="bottom" horiz-adv-x="978" d="M949.657 661.666c-12.299 23.455-30.892 34.038-59.495 34.324-16.304 0-22.311-1.43-32.036-7.151-6.579-4.004-91.817-82.092-189.64-173.908-97.823-91.531-178.771-166.472-179.915-166.472s-82.378 75.227-180.773 167.33c-98.109 92.103-183.634 170.476-189.926 173.908-17.734 9.439-47.196 8.867-65.216-1.716-19.164-11.441-28.603-26.887-30.034-48.912-0.858-14.302 0.286-19.736 5.721-29.461 9.153-16.59 408.742-391.008 429.050-402.163 18.878-10.011 43.477-10.583 61.497-1.144 18.878 9.725 423.044 389.864 429.908 404.165 6.865 14.016 7.437 38.901 0.858 51.2z" />
<glyph unicode="&#xe922;" glyph-name="top" horiz-adv-x="978" d="M28.343 234.334c12.299-23.455 30.892-34.038 59.495-34.324 16.304 0 22.311 1.43 32.036 7.151 6.579 4.004 91.817 82.092 189.64 173.908 97.823 91.531 178.771 166.472 179.915 166.472s82.378-75.227 180.773-167.33c98.109-92.103 183.634-170.476 189.926-173.908 17.734-9.439 47.196-8.867 65.216 1.716 19.164 11.441 28.603 26.887 30.034 48.912 0.858 14.302-0.286 19.736-5.721 29.461-9.153 16.59-408.742 391.008-429.050 402.163-18.878 10.011-43.477 10.583-61.497 1.144-18.878-9.725-423.044-389.864-429.908-404.165-6.865-14.016-7.437-38.901-0.858-51.2z" />
<glyph unicode="&#xeead;" glyph-name="tick" d="M724.139 671.958c-41.259 22.955-93.227 8.021-116.053-33.152l-158.421-285.099-90.667 90.667c-33.323 33.323-87.339 33.323-120.661 0s-33.323-87.339 0-120.661l170.667-170.667c16.128-16.171 37.888-25.045 60.331-25.045 3.925 0 7.893 0.256 11.819 0.853 26.496 3.712 49.749 19.627 62.763 43.051l213.333 384c22.912 41.216 8.064 93.141-33.109 116.053z" />
</font>
</defs>
</svg>
